<?xml version="1.0" standalone="no"?>
<!DOCTYPE svg PUBLIC "-//W3C//DTD SVG 20010904//EN"
 "http://www.w3.org/TR/2001/REC-SVG-20010904/DTD/svg10.dtd">
<svg version="1.0" xmlns="http://www.w3.org/2000/svg"
 width="701.000000pt" height="804.000000pt" viewBox="0 0 701.000000 804.000000"
 preserveAspectRatio="xMidYMid meet">

<g transform="translate(0.000000,804.000000) scale(0.100000,-0.100000)"
fill="#000000" stroke="none">
<path d="M5010 7614 c-19 -8 -44 -24 -56 -35 -21 -20 -21 -20 -65 6 -108 62
-225 9 -420 -190 -80 -81 -104 -188 -54 -235 30 -28 32 -46 5 -55 -23 -7 -27
-27 -5 -23 8 2 22 -11 32 -31 21 -40 74 -71 123 -71 28 -1 39 -7 55 -33 11
-17 38 -42 60 -55 58 -33 157 -28 208 11 25 19 47 27 76 27 22 0 58 6 78 14
70 26 120 28 170 6 88 -39 186 -20 228 44 9 14 29 28 45 31 61 13 118 113 105
183 -7 40 -39 107 -55 117 -6 3 -23 -4 -38 -16 -21 -17 -23 -20 -6 -15 16 5
25 -2 42 -33 39 -70 21 -155 -43 -197 -20 -13 -29 -14 -38 -5 -19 19 -37 12
-37 -13 0 -14 -11 -38 -24 -53 -21 -24 -31 -28 -78 -27 -29 0 -64 6 -76 13
l-24 13 24 25 c21 24 21 25 3 18 -102 -40 -132 -41 -180 -3 -45 35 -56 69 -49
147 6 66 5 73 -21 106 -19 26 -25 43 -21 61 9 36 62 64 119 64 41 0 53 -5 79
-31 23 -23 28 -33 19 -42 -6 -6 -11 -17 -11 -24 0 -10 10 -8 39 7 27 13 50 18
70 14 35 -7 81 -46 81 -69 0 -8 4 -15 10 -15 5 0 8 17 7 37 -3 48 -47 77 -118
75 -45 -1 -48 1 -54 28 -7 34 14 81 47 104 53 37 149 2 184 -67 9 -18 21 -35
27 -39 7 -4 7 -11 1 -20 -5 -8 -1 -5 8 5 16 17 16 22 2 55 -28 68 -85 107
-171 119 -27 3 -62 17 -79 29 -70 54 -155 68 -224 38z m160 -36 c59 -31 72
-53 43 -76 -13 -9 -25 -31 -29 -49 -6 -29 -8 -31 -31 -22 -35 13 -99 11 -137
-5 l-33 -14 -11 44 c-22 81 -15 97 53 129 44 21 95 18 145 -7z m-305 -22 c35
-23 66 -91 72 -157 l6 -58 -39 -3 -39 -3 37 -17 c21 -9 48 -34 63 -57 26 -38
27 -43 15 -91 -15 -62 -8 -94 31 -143 l30 -37 -26 -10 c-53 -20 -91 -13 -124
25 -17 20 -31 41 -31 46 0 8 -15 9 -44 5 -85 -13 -156 42 -156 122 0 35 5 44
44 75 53 44 81 98 70 135 l-7 27 -11 -35 c-5 -19 -36 -62 -68 -95 -62 -64 -78
-103 -60 -154 8 -23 7 -32 -3 -41 -8 -6 -17 -25 -20 -41 -6 -25 -11 -29 -40
-29 -24 0 -45 9 -70 31 -29 26 -35 38 -35 73 0 22 -7 50 -15 60 -23 31 -18 73
17 138 37 70 70 97 93 78 14 -11 14 -10 5 14 -5 15 -10 31 -10 34 0 12 56 42
64 35 3 -4 23 10 44 30 68 66 147 82 207 43z m-173 -503 c28 -19 53 -27 90
-28 43 -1 53 -5 64 -27 7 -14 20 -28 29 -32 23 -8 18 -19 -18 -43 -58 -40
-151 -24 -195 32 -16 20 -22 42 -22 76 0 27 3 49 7 49 4 0 24 -12 45 -27z"/>
<path d="M5655 7250 c3 -5 8 -10 11 -10 2 0 4 5 4 10 0 6 -5 10 -11 10 -5 0
-7 -4 -4 -10z"/>
<path d="M5400 7188 c0 -7 -3 -22 -6 -34 -5 -18 -2 -20 25 -16 36 5 36 5 15
37 -18 27 -34 33 -34 13z"/>
<path d="M3593 7021 c-111 -129 -271 -163 -586 -125 -76 10 -163 14 -205 11
-55 -4 -71 -3 -64 6 4 7 26 34 48 61 l39 49 -53 -7 c-74 -10 -204 -52 -283
-91 -149 -76 -304 -198 -360 -285 l-16 -24 -16 49 c-9 28 -20 77 -23 109 l-7
59 -24 -29 c-47 -56 -75 -129 -76 -204 l-2 -70 -35 -7 c-103 -21 -252 -2 -344
43 -27 14 -51 22 -54 20 -8 -9 27 -91 60 -141 28 -42 123 -124 160 -138 9 -3
4 -11 -12 -22 -43 -31 -148 -143 -188 -203 -47 -69 -75 -122 -68 -129 2 -3 47
6 100 19 l95 24 -6 -62 c-6 -67 7 -162 38 -269 25 -86 99 -275 108 -275 3 1
15 15 26 33 32 50 80 77 138 77 100 0 183 -68 238 -193 13 -31 27 -57 31 -57
3 0 9 19 13 43 14 92 16 97 38 97 12 0 64 -9 116 -20 52 -11 98 -20 103 -20 4
0 8 20 8 44 l0 45 -97 22 c-54 12 -102 25 -106 29 -4 4 20 51 54 105 65 103
128 232 150 303 7 24 17 42 23 40 6 -2 63 -20 126 -40 63 -20 128 -40 144 -43
l29 -6 -44 -32 -44 -32 32 -3 c46 -5 134 14 203 42 33 13 60 20 60 16 0 -5
-11 -22 -25 -38 -14 -17 -25 -32 -25 -35 0 -16 178 36 252 74 22 11 42 19 44
17 2 -2 -8 -21 -22 -42 -14 -21 -24 -40 -21 -42 8 -9 154 44 236 86 44 22 115
64 160 94 l80 55 19 -52 c11 -29 32 -106 46 -172 15 -66 29 -121 31 -123 5 -6
33 90 40 142 l7 44 31 -13 c30 -12 73 -19 105 -16 9 1 3 14 -16 39 -16 20 -39
57 -52 81 l-22 45 23 19 c113 89 174 183 203 314 17 78 21 193 7 193 -5 0 -19
-15 -31 -34 -26 -43 -79 -90 -131 -116 l-40 -21 8 28 c5 15 8 75 8 133 -1 83
-6 120 -24 175 -29 86 -91 215 -104 215 -5 0 -25 -13 -43 -30 -19 -16 -53 -39
-76 -51 -42 -21 -144 -59 -159 -59 -5 0 5 21 22 48 50 79 71 180 51 250 -7 21
-10 19 -49 -27z"/>
<path d="M2820 5697 c-26 -7 -62 -22 -80 -34 -38 -23 -96 -80 -89 -87 2 -2 51
3 109 11 82 12 124 13 195 5 50 -6 98 -13 107 -17 13 -5 19 2 27 32 6 21 11
41 11 45 0 12 -124 49 -180 53 -30 3 -75 -1 -100 -8z"/>
<path d="M3581 5664 c-30 -8 -57 -16 -59 -18 -2 -2 2 -22 8 -44 10 -40 11 -40
43 -31 53 15 128 10 200 -15 l67 -23 0 32 c0 56 -87 116 -167 114 -21 0 -63
-7 -92 -15z"/>
<path d="M2645 5496 c-5 -3 -26 -7 -46 -10 -42 -7 -59 -35 -59 -98 0 -29 7
-49 21 -64 15 -16 27 -52 39 -123 24 -134 36 -166 71 -195 41 -35 120 -48 269
-44 176 4 188 14 254 203 19 54 40 103 48 111 7 7 29 15 48 19 52 9 96 -22
110 -77 48 -193 61 -221 124 -252 51 -25 262 -35 322 -16 74 24 94 54 136 210
20 76 35 111 53 128 23 21 26 30 23 80 l-3 56 -43 12 c-60 18 -388 38 -477 29
-86 -8 -117 -27 -135 -80 -11 -34 -13 -35 -48 -28 -21 4 -54 8 -74 8 -33 0
-38 4 -51 37 -19 48 -56 66 -164 77 -98 11 -403 23 -418 17z m460 -78 c61 -20
71 -50 52 -152 -19 -104 -52 -190 -87 -230 l-28 -31 -119 1 c-136 0 -196 14
-219 50 -26 39 -44 131 -45 231 -2 101 11 137 53 147 45 10 353 -2 393 -16z
m-515 -10 c0 -7 -5 -20 -10 -28 -8 -12 -10 -9 -10 13 0 15 5 27 10 27 6 0 10
-6 10 -12z m1197 -2 c88 -4 129 -16 145 -40 14 -20 8 -130 -11 -201 -44 -167
-59 -180 -216 -180 -136 1 -178 17 -206 79 -26 62 -42 157 -37 235 4 85 22
109 82 113 41 3 68 3 243 -6z m253 -61 c0 -8 -4 -17 -10 -20 -6 -4 -10 5 -10
20 0 15 4 24 10 20 6 -3 10 -12 10 -20z"/>
<path d="M2860 5301 c-23 -44 -4 -101 33 -101 13 0 28 5 35 12 16 16 16 80 0
96 -18 18 -56 14 -68 -7z"/>
<path d="M3626 5285 c-9 -9 -16 -31 -16 -49 0 -60 53 -76 78 -23 25 52 -24
109 -62 72z"/>
<path d="M1906 5369 c-14 -17 -26 -43 -26 -57 l0 -27 20 32 c36 60 99 71 142
26 45 -49 63 -103 34 -103 -23 0 -73 -47 -80 -75 -11 -42 5 -51 23 -14 11 23
30 40 59 53 49 23 54 44 22 105 -47 93 -142 122 -194 60z"/>
<path d="M3340 5038 c0 -7 13 -41 30 -76 34 -72 30 -91 -20 -117 -34 -18 -39
-35 -10 -35 26 0 90 57 90 80 0 24 -69 160 -81 160 -5 0 -9 -6 -9 -12z"/>
<path d="M2155 4949 c-30 -11 -49 -23 -47 -31 6 -24 126 -218 135 -218 6 0 8
33 4 83 -5 84 -26 188 -36 186 -3 -1 -28 -10 -56 -20z"/>
<path d="M3214 4829 c-10 -17 13 -36 27 -22 12 12 4 33 -11 33 -5 0 -12 -5
-16 -11z"/>
<path d="M3008 4618 c22 -28 129 -68 195 -75 44 -4 80 -1 120 11 63 18 79 39
20 25 -21 -5 -71 -9 -110 -9 -69 0 -90 5 -218 56 -17 7 -18 6 -7 -8z"/>
<path d="M2365 4550 c56 -160 241 -417 381 -532 70 -57 161 -118 176 -118 4 0
8 60 8 133 l0 132 -68 32 c-140 65 -271 162 -420 307 l-93 91 16 -45z"/>
<path d="M1982 3820 c-181 -73 -239 -106 -280 -162 -41 -55 -110 -105 -202
-146 -77 -35 -258 -94 -273 -89 -5 1 19 12 54 22 105 32 267 102 316 137 25
18 57 48 71 66 l25 32 -59 -27 c-33 -14 -68 -32 -79 -39 -11 -7 -78 -35 -150
-62 -323 -122 -484 -208 -570 -303 -16 -18 -23 -28 -15 -22 31 22 132 53 173
53 64 -1 193 -49 277 -105 151 -99 310 -287 390 -458 49 -108 64 -173 57 -258
-6 -73 -26 -130 -27 -75 -1 86 -78 273 -185 446 -40 65 -91 127 -159 196 -89
89 -113 107 -200 149 -89 44 -109 49 -182 53 -106 6 -171 -15 -214 -66 -52
-62 -97 -169 -122 -287 -20 -97 -23 -138 -22 -340 0 -140 7 -293 17 -390 9
-88 19 -270 22 -405 9 -362 23 -500 85 -815 17 -85 33 -215 39 -300 6 -90 16
-169 26 -197 21 -59 95 -129 163 -153 502 -178 597 -191 932 -129 14 2 0 -5
-30 -16 -72 -27 -206 -50 -290 -50 -91 0 -211 22 -361 66 -68 20 -131 38 -140
41 -13 4 -16 -10 -18 -91 l-2 -96 2734 0 2733 0 32 33 c31 32 34 43 142 572
61 297 115 560 120 585 5 25 34 167 65 315 31 149 74 357 96 464 l39 195 0
460 0 461 -1407 -2 -1408 -3 -30 41 c-41 57 -144 141 -224 183 -36 19 -163 75
-282 124 -187 78 -248 109 -379 190 l-25 16 24 -27 c29 -32 40 -116 22 -170
-28 -84 -145 -178 -277 -223 -71 -25 -93 -28 -219 -28 -206 0 -374 41 -590
144 -124 58 -319 186 -309 202 4 6 3 8 -4 4 -13 -8 -134 113 -126 126 3 5 38
-22 78 -59 130 -124 367 -263 546 -321 356 -116 636 -90 805 75 86 84 107 179
55 258 -35 53 -283 186 -305 163 -3 -2 -2 -19 1 -37 6 -27 17 -37 85 -72 66
-34 80 -46 87 -73 20 -75 -21 -137 -127 -189 -58 -28 -74 -31 -181 -35 -95 -4
-138 0 -220 18 -234 50 -481 165 -623 290 l-38 33 48 24 c71 36 167 133 131
133 -7 0 -69 -23 -136 -50z m-398 -1248 c41 -81 57 -159 111 -552 9 -63 29
-182 46 -263 16 -82 29 -167 29 -189 0 -33 6 -46 35 -72 40 -37 42 -54 20
-141 -15 -56 -15 -60 3 -85 11 -14 29 -44 41 -67 17 -34 28 -43 53 -47 18 -3
80 -13 138 -22 208 -33 423 -95 530 -154 45 -25 28 -25 -51 -1 -235 72 -508
119 -706 122 -43 1 -91 4 -107 8 l-30 6 26 12 c14 6 42 15 62 18 41 8 44 17
16 62 -26 44 -51 54 -125 54 -128 0 -323 -105 -530 -285 -101 -88 -51 -23 76
98 108 104 208 176 302 216 54 24 72 40 44 40 -22 0 -147 -45 -222 -80 -158
-73 -182 -82 -155 -60 35 28 202 112 277 140 70 25 93 24 216 -10 43 -12 80
-20 82 -18 2 1 5 27 6 56 l4 53 -130 48 c-158 59 -225 88 -290 129 -58 37 -55
40 12 11 65 -28 405 -140 410 -135 2 2 -10 20 -26 39 -24 27 -31 44 -31 76 0
23 -18 123 -39 224 -22 100 -49 265 -61 367 -21 179 -52 381 -66 428 -11 38 4
24 30 -26z m1803 -614 c-3 -8 -6 -5 -6 6 -1 11 2 17 5 13 3 -3 4 -12 1 -19z
m2020 -56 c100 -52 155 -164 135 -279 -14 -87 -47 -149 -111 -213 -122 -121
-295 -134 -399 -30 -111 111 -103 293 21 427 102 110 247 149 354 95z m-3637
-697 c10 -12 7 -15 -17 -20 -124 -28 -317 -124 -453 -227 -115 -87 -101 -56
28 57 160 142 397 244 442 190z m1115 -307 c18 -19 34 -41 37 -49 4 -11 25 -8
114 20 60 18 117 36 127 38 24 7 23 -3 -22 -234 -22 -111 -46 -238 -53 -283
-8 -52 -18 -84 -27 -88 -26 -10 -162 18 -279 57 -64 22 -141 43 -170 47 -62 8
-72 21 -72 91 0 67 35 164 84 237 l42 61 86 11 c47 6 102 14 123 18 l38 7 -34
35 c-28 29 -40 34 -78 34 -92 0 -188 -79 -245 -200 -28 -59 -31 -74 -31 -162
0 -91 2 -99 30 -140 17 -23 45 -50 62 -58 39 -18 42 -30 8 -30 -38 0 -91 54
-115 116 -14 38 -20 79 -20 133 0 163 66 285 191 349 55 29 71 33 118 29 46
-3 59 -9 86 -39z m-587 -674 c12 -4 22 -10 22 -15 0 -8 -71 -4 -170 10 -53 8
-52 9 35 10 50 0 100 -2 113 -5z m345 -36 c81 -7 147 -16 147 -21 0 -4 5 -5
11 -2 6 4 60 4 120 0 80 -5 109 -11 109 -21 0 -7 -3 -15 -7 -17 -8 -5 -237 21
-263 29 -8 3 -58 8 -110 10 -52 3 -96 9 -98 13 -1 5 -13 6 -25 4 -12 -2 -51 1
-87 6 l-65 8 60 2 c33 1 126 -4 208 -11z"/>
<path d="M563 2905 c-54 -23 -145 -89 -204 -148 -152 -152 -219 -333 -219
-599 0 -123 -1 -113 156 -1233 47 -335 96 -680 108 -765 l22 -155 287 -3 287
-2 0 105 c0 90 -2 105 -16 105 -33 0 -137 65 -179 112 -64 71 -84 135 -100
318 -8 85 -25 209 -39 275 -53 258 -63 355 -71 705 -4 162 -14 339 -27 455
-16 134 -22 253 -22 405 0 192 2 225 23 310 13 52 28 103 33 113 10 20 4 21
-39 2z"/>
</g>
</svg>
